<svg width="18" height="23" viewBox="0 0 18 23" fill="none" xmlns="http://www.w3.org/2000/svg">
<path d="M11.0954 1.82554C9.94923 0.641815 8.05078 0.641813 6.90463 1.82553L1.30641 7.60722C0.984892 7.93927 0.768842 8.35905 0.685476 8.81367C0.0055905 12.5213 -0.0445957 16.317 0.537027 20.0413L0.742947 21.3599C0.807987 21.7764 1.16669 22.0834 1.58822 22.0834H5.50001C5.82217 22.0834 6.08334 21.8222 6.08334 21.5001V13.3334H11.9167V21.5001C11.9167 21.8222 12.1778 22.0834 12.5 22.0834H16.4117C16.8333 22.0834 17.192 21.7764 17.257 21.3599L17.4629 20.0413C18.0446 16.317 17.9944 12.5213 17.3145 8.81367C17.2311 8.35905 17.0151 7.93927 16.6936 7.60722L11.0954 1.82554Z" fill="#FF3440"/>
</svg>
