<svg width="20" height="21" viewBox="0 0 20 21" fill="none" xmlns="http://www.w3.org/2000/svg">
<path fill-rule="evenodd" clip-rule="evenodd" d="M5.04183 5.75008C5.04183 3.01167 7.26175 0.791748 10.0002 0.791748C12.7386 0.791748 14.9585 3.01167 14.9585 5.75008C14.9585 8.48849 12.7386 10.7084 10.0002 10.7084C7.26175 10.7084 5.04183 8.48849 5.04183 5.75008ZM10.0002 2.54175C8.22825 2.54175 6.79183 3.97817 6.79183 5.75008C6.79183 7.52199 8.22825 8.95841 10.0002 8.95841C11.7721 8.95841 13.2085 7.52199 13.2085 5.75008C13.2085 3.97817 11.7721 2.54175 10.0002 2.54175Z" fill="#666666"/>
<path fill-rule="evenodd" clip-rule="evenodd" d="M5.3335 14.2084C3.88375 14.2084 2.7085 15.3837 2.7085 16.8334V18.2197C2.7085 18.2409 2.72379 18.2589 2.74463 18.2623C7.54984 19.0468 12.4505 19.0468 17.2557 18.2623C17.2765 18.2589 17.2918 18.2409 17.2918 18.2197V16.8334C17.2918 15.3837 16.1166 14.2084 14.6668 14.2084H14.2691C14.2384 14.2084 14.2078 14.2133 14.1786 14.2228L13.1688 14.5525C11.1099 15.2249 8.89044 15.2249 6.83148 14.5525L5.82171 14.2228C5.79248 14.2133 5.76193 14.2084 5.73118 14.2084H5.3335ZM0.958496 16.8334C0.958496 14.4172 2.91725 12.4584 5.3335 12.4584H5.73118C5.94642 12.4584 6.16031 12.4924 6.36491 12.5593L7.37468 12.889C9.08068 13.446 10.9196 13.446 12.6256 12.889L13.6354 12.5593C13.84 12.4924 14.0539 12.4584 14.2691 12.4584H14.6668C17.0831 12.4584 19.0418 14.4172 19.0418 16.8334V18.2197C19.0418 19.0985 18.405 19.8478 17.5377 19.9894C12.5457 20.8044 7.45461 20.8044 2.46265 19.9894C1.59536 19.8478 0.958496 19.0985 0.958496 18.2197V16.8334Z" fill="#666666"/>
</svg>
