<svg width="24" height="21" viewBox="0 0 24 21" fill="none" xmlns="http://www.w3.org/2000/svg">
<path fill-rule="evenodd" clip-rule="evenodd" d="M11.9999 0.374756L20.4858 0.614685C21.9852 0.657079 23.2254 1.79534 23.3959 3.28564C23.7734 6.58452 23.7734 9.91569 23.3959 13.2146C23.2254 14.7049 21.9852 15.8431 20.4858 15.8855L14.0416 16.0677V18.4584H17.8333C18.3165 18.4584 18.7083 18.8502 18.7083 19.3334C18.7083 19.8167 18.3165 20.2084 17.8333 20.2084H6.1666C5.68335 20.2084 5.2916 19.8167 5.2916 19.3334C5.2916 18.8502 5.68335 18.4584 6.1666 18.4584H9.95826V16.0677L3.51401 15.8855C2.01459 15.8431 0.774401 14.7049 0.603886 13.2146C0.226439 9.91569 0.226439 6.58452 0.603886 3.28564C0.774401 1.79534 2.01459 0.657079 3.51401 0.614685L11.9999 0.374756ZM11.9999 2.12546L3.56347 2.36399C2.9344 2.38177 2.41408 2.85932 2.34254 3.48457C1.98022 6.65127 1.98022 9.84894 2.34254 13.0156C2.41408 13.6409 2.9344 14.1184 3.56347 14.1362L11.9999 14.3748L20.4363 14.1362C21.0654 14.1184 21.5857 13.6409 21.6573 13.0156C22.0196 9.84894 22.0196 6.65127 21.6573 3.48457C21.5857 2.85932 21.0654 2.38177 20.4363 2.36399L11.9999 2.12546Z" fill="#666666"/>
</svg>
